<?xml version="1.0" encoding="UTF-8"?>
<svg width="256" height="256" version="1.1"
     xmlns="http://www.w3.org/2000/svg"
     xmlns:xlink="http://www.w3.org/1999/xlink">
  <defs>
    <linearGradient id="Gradient" x1="0" x2="0" y1="0" y2="1">
      <stop offset="0%" style="stop-color:#000000;stop-opacity:1" />
      <stop offset="100%" style="stop-color:#1F538D;stop-opacity:1" />
    </linearGradient>
    <filter id="alpha-to-white">
      <feColorMatrix in="SourceGraphic" type="matrix"
                     values="0 0 0 1 0
                             0 0 0 1 0
                             0 0 0 1 0
                             0 0 0 1 0"/>
    </filter>
    <g id="child-svg"><!-- Uploaded to: SVG Repo, www.svgrepo.com, Generator: SVG Repo Mixer Tools -->
<svg width="800px" height="800px" viewBox="0 0 24 24" fill="none" xmlns="http://www.w3.org/2000/svg">
<path d="M13.2978 2.11468C13.0064 2.06339 12.75 2.29593 12.75 2.59185V5.45262C12.75 5.65098 12.8709 5.82564 13.0359 5.93583C13.5391 6.27202 13.87 6.84597 13.87 7.49906V9.49906C13.87 10.5291 13.03 11.3791 12 11.3791C10.96 11.3791 10.12 10.5291 10.12 9.49906V7.49906C10.12 6.84578 10.4583 6.27168 10.9639 5.93554C11.1291 5.82572 11.25 5.65098 11.25 5.45262V2.59249C11.25 2.29634 10.9935 2.0637 10.7019 2.11513C9.15243 2.38834 7.76579 3.13327 6.7 4.19906C5.34 5.55906 4.5 7.43906 4.5 9.49906V14.4991C4.5 18.6291 7.87 21.9991 12 21.9991C16.13 21.9991 19.5 18.6291 19.5 14.4991V9.49906C19.5 5.80857 16.813 2.73328 13.2978 2.11468Z" fill="#292D32"/>
</svg></g>
  </defs>
  <rect
      width="256"
      height="256"
      fill="url(#Gradient)"
      ry="0"
      x="0"
      y="0" />
  <use xlink:href="#child-svg" filter="url(#alpha-to-white)"
       transform="matrix(0.16,0,0,0.16,64,64)" />
</svg>
